<svg width="12" height="16" viewBox="0 0 12 16" fill="none" xmlns="http://www.w3.org/2000/svg">
<path d="M8.97646 6.6358C9.46596 5.3023 9.84896 4.2033 10.125 3.3338C10.3985 2.4668 10.5365 1.9328 10.5365 1.7348C10.5365 1.5238 10.4895 1.3573 10.3985 1.2428C10.3075 1.1258 10.1825 1.0658 10.0185 1.0658C9.81296 1.0658 9.59896 1.2353 9.39346 1.5763C9.17996 1.9148 8.94546 2.4643 8.68496 3.2193L7.58596 6.3938L8.96596 6.6358H8.97646ZM7.51546 9.5943C7.21528 9.57549 6.91624 9.54162 6.61946 9.4928C6.34302 9.44246 6.07125 9.36921 5.80696 9.2738C5.92696 9.5058 6.03096 9.7398 6.12196 9.9743C6.21296 10.2063 6.28846 10.4328 6.34846 10.6668C6.52296 10.4453 6.70796 10.2448 6.90296 10.0653C7.09278 9.88935 7.29662 9.72916 7.51246 9.5863L7.51546 9.5943ZM6.27346 6.2608L5.08596 2.8338C4.77596 1.9588 4.53896 1.3938 4.36996 1.1203C4.20346 0.852305 4.02096 0.719305 3.82296 0.719305C3.66946 0.719305 3.54446 0.773805 3.44796 0.893805C3.35146 1.0138 3.30746 1.1673 3.30746 1.3598C3.30746 1.6933 3.43246 2.2793 3.68496 3.1203C3.93996 3.9538 4.32546 5.0473 4.83846 6.4068C4.87833 6.32828 4.94477 6.26644 5.02596 6.2323C5.10646 6.2008 5.21346 6.1803 5.35146 6.1803C5.39296 6.1803 5.47896 6.1853 5.61196 6.1853C5.73946 6.2008 5.95846 6.2138 6.26046 6.2453L6.27346 6.2608ZM5.19546 11.5653C5.32046 11.5653 5.43496 11.5053 5.53396 11.3933C5.63546 11.2733 5.69046 11.1538 5.69046 11.0263C5.69046 10.8858 5.59146 10.5603 5.39096 10.0523C5.18124 9.53227 4.9287 9.03055 4.63596 8.5523C4.41696 8.1853 4.20096 7.9063 3.98996 7.7188C3.77396 7.5338 3.57346 7.4403 3.38296 7.4403C3.22946 7.4403 3.05996 7.5343 2.87246 7.7318C2.68496 7.9273 2.59096 8.1068 2.59096 8.2733C2.59096 8.4453 2.68496 8.7133 2.86696 9.0598C3.04946 9.4113 3.29646 9.7863 3.60146 10.1798C3.92696 10.6123 4.22896 10.9453 4.51546 11.1848C4.80196 11.4268 5.02846 11.5468 5.19496 11.5468L5.19546 11.5653ZM1.89846 11.2998C2.00246 11.4273 2.14596 11.6073 2.32796 11.8468C2.80996 12.5133 3.25746 12.8468 3.66896 12.8468C3.80545 12.8464 3.93772 12.7995 4.04396 12.7138C4.15346 12.6198 4.20796 12.5343 4.20796 12.4323C4.20796 12.3203 4.13496 12.1408 3.98896 11.8803C3.84046 11.6198 3.63996 11.3333 3.38196 11.0133C3.09046 10.6408 2.84546 10.3673 2.64996 10.1928C2.45996 10.0183 2.30096 9.9323 2.18646 9.9323C1.93396 9.9323 1.69146 10.0728 1.48096 10.3463C1.26746 10.6118 1.16046 10.9453 1.16046 11.3203C1.16046 11.6198 1.23846 11.9533 1.39246 12.3253C1.54596 12.6923 1.75946 13.0648 2.04596 13.4398C2.47035 14.0064 3.02385 14.4636 3.66046 14.7733C4.29846 15.0778 5.01196 15.2318 5.78546 15.2318C7.21246 15.2318 8.41296 14.7003 9.37396 13.6328C10.34 12.5653 10.8195 11.2318 10.8195 9.6248C10.8195 9.1328 10.7855 8.7393 10.7125 8.4528C10.6395 8.1663 10.52 7.9528 10.353 7.8198C10.0535 7.5648 9.46496 7.3458 8.60046 7.1453C7.70763 6.94231 6.79456 6.84183 5.87896 6.8458C5.61846 6.8458 5.42596 6.8928 5.31896 6.9788C5.21196 7.0648 5.15996 7.2183 5.15996 7.4268C5.15996 7.9268 5.43846 8.2888 5.99846 8.5128C6.55846 8.7393 7.45946 8.8513 8.70696 8.8513H9.15746C9.20456 8.85056 9.25119 8.86074 9.29369 8.88104C9.3362 8.90134 9.37343 8.93121 9.40246 8.9683C9.46246 9.0413 9.50396 9.1533 9.52246 9.3148C9.39746 9.4268 9.14496 9.5623 8.75446 9.7133C8.36146 9.8618 8.06696 10.0153 7.86146 10.1588C7.43467 10.4667 7.07418 10.8573 6.80146 11.3073C6.53596 11.7473 6.40046 12.1668 6.40046 12.5623C6.40046 12.8018 6.45796 13.0963 6.57246 13.4348C6.68696 13.7758 6.74696 13.9843 6.74696 14.0703V14.1433L6.72596 14.2423C6.40546 14.2243 6.15296 14.0338 5.96546 13.6773C5.77546 13.3233 5.68696 12.8493 5.68696 12.2553V12.1563C5.62696 12.2058 5.56996 12.2448 5.51246 12.2658C5.45544 12.2888 5.39444 12.3004 5.33296 12.2998C5.26796 12.2998 5.20296 12.2948 5.14046 12.2868C5.07519 12.2749 5.01086 12.2584 4.94796 12.2373C4.96596 12.3153 4.98446 12.3963 4.99746 12.4718C5.00546 12.5523 5.01046 12.6123 5.01046 12.6513C5.01046 12.9223 4.90346 13.1593 4.68996 13.3518C4.47896 13.5418 4.22396 13.6383 3.93196 13.6383C3.47096 13.6383 2.99946 13.4118 2.52296 12.9638C2.04646 12.5158 1.81196 12.0708 1.81196 11.6408C1.81196 11.5628 1.81996 11.4873 1.83796 11.4273C1.85453 11.3661 1.88695 11.3104 1.93196 11.2658L1.89846 11.2998ZM9.76796 6.8128C10.427 6.9328 10.893 7.2138 11.161 7.6463C11.4345 8.0733 11.57 8.7533 11.57 9.6853C11.57 11.5343 11.018 13.0393 9.90846 14.2138C8.79646 15.3858 7.37696 15.9793 5.65046 15.9793C4.96796 15.9793 4.30646 15.8518 3.66596 15.6068C3.05063 15.375 2.4863 15.0257 2.00446 14.5783C1.47846 14.0938 1.07746 13.5863 0.819457 13.0468C0.551457 12.5053 0.418457 11.9528 0.418457 11.3933C0.418457 10.7603 0.551457 10.2733 0.819457 9.9323C1.08496 9.5858 1.51746 9.3518 2.10596 9.2268C1.99146 8.9663 1.91046 8.7528 1.86646 8.5733C1.81196 8.3938 1.78596 8.2608 1.78596 8.1668C1.78596 7.8333 1.95796 7.4923 2.30696 7.1538C2.65346 6.8073 2.97896 6.6328 3.28596 6.6328C3.41096 6.6328 3.55146 6.6538 3.69996 6.7058C3.84596 6.7528 4.01246 6.8333 4.19996 6.9403C3.65846 5.3728 3.24446 4.1408 2.99146 3.2738C2.73096 2.3988 2.60596 1.8078 2.60596 1.4743C2.60596 1.0188 2.71796 0.653805 2.95246 0.385805C3.19196 0.120305 3.51246 -0.0126953 3.91096 -0.0126953C4.59846 -0.0126953 5.47346 1.5263 6.53346 4.6018C6.71846 5.1278 6.85096 5.5343 6.95296 5.8208L7.29146 4.8518C8.35146 1.8203 9.26046 0.299805 10.026 0.299805C10.3985 0.299805 10.7005 0.427305 10.919 0.679805C11.1405 0.934805 11.2525 1.2708 11.2525 1.6953C11.2525 2.0158 11.125 2.6018 10.88 3.4608C10.635 4.3148 10.2655 5.4348 9.76546 6.8203L9.76796 6.8128Z" fill="black"/>
</svg>
