<svg width="97" height="71" viewBox="0 0 97 71" fill="none" xmlns="http://www.w3.org/2000/svg">
<path d="M0.120117 0.34375H21.2401C30.2641 0.34375 37.6881 2.10375 43.5121 5.62375C49.3361 9.07975 53.5601 13.5918 56.1841 19.1598C58.8721 24.6638 60.2161 30.5838 60.2161 36.9198C60.2161 43.7038 58.6161 49.6878 55.4161 54.8718C52.2161 60.0558 47.8961 64.0558 42.4561 66.8718C37.0801 69.6238 31.1601 70.9998 24.6961 70.9998H0.120117V0.34375ZM22.2961 57.5598C29.5281 57.5598 35.2561 55.7038 39.4801 51.9918C43.7041 48.2798 45.8161 42.9358 45.8161 35.9598C45.8161 30.3278 44.6321 25.8478 42.2641 22.5198C39.9601 19.1918 37.2401 16.8878 34.1041 15.6078C31.0321 14.3278 28.1201 13.6878 25.3681 13.6878H14.0401V57.5598H22.2961Z" fill="black"/>
<path d="M79.8466 70.9998L64.9666 48.5358H55.6546V70.9998H41.7346V0.34375H63.1426C71.9106 0.34375 78.6946 2.48775 83.4946 6.77575C88.3586 10.9998 90.7906 16.7918 90.7906 24.1518C90.7906 28.5038 89.8626 32.5998 88.0066 36.4398C86.2146 40.2158 83.4306 43.1918 79.6546 45.3678L96.0706 70.9998H79.8466ZM55.6546 35.0958H65.5426C69.3186 35.0958 72.0706 34.0078 73.7986 31.8318C75.5266 29.5918 76.3906 27.1918 76.3906 24.6318C76.3906 22.0718 75.6546 19.6398 74.1826 17.3358C72.7106 14.9678 69.8626 13.7838 65.6386 13.7838H55.6546V35.0958Z" fill="black"/>
</svg>
