<svg width="16" height="16" viewBox="0 0 16 16" fill="none" xmlns="http://www.w3.org/2000/svg">
<path d="M0 0H16V16H0V0Z" fill="#F7DF1E"/>
<path d="M4.20709 13.3709L5.43147 12.6299C5.66772 13.0487 5.88259 13.4031 6.39803 13.4031C6.89209 13.4031 7.20366 13.2098 7.20366 12.4581V7.3457H8.70722V12.4793C8.70722 14.0366 7.79434 14.7455 6.46247 14.7455C5.25966 14.7455 4.56147 14.1226 4.20703 13.3708" fill="black"/>
<path d="M9.52399 13.2098L10.7482 12.501C11.0706 13.0273 11.4894 13.414 12.2304 13.414C12.8535 13.414 13.2507 13.1025 13.2507 12.6728C13.2507 12.1573 12.8426 11.9747 12.1552 11.6741L11.7794 11.5128C10.6946 11.0511 9.97505 10.4711 9.97505 9.24677C9.97505 8.11902 10.8342 7.25977 12.1768 7.25977C13.1327 7.25977 13.8201 7.59277 14.3141 8.4627L13.1433 9.21458C12.8855 8.75277 12.6064 8.5702 12.1767 8.5702C11.7364 8.5702 11.4571 8.84945 11.4571 9.21458C11.4571 9.66564 11.7364 9.84833 12.3807 10.1276L12.7566 10.2886C14.0347 10.8365 14.7543 11.3949 14.7543 12.6514C14.7543 14.0048 13.6911 14.7458 12.2626 14.7458C10.8664 14.7458 9.96424 14.0799 9.52393 13.2099" fill="black"/>
</svg>
