<svg width="125" height="125" viewBox="0 0 125 125" fill="none" xmlns="http://www.w3.org/2000/svg">
<path d="M24.508 0.03125C11.0434 0.03125 0.0233765 11.051 0.0233765 24.5159V100.496C0.0233765 113.961 11.0431 124.977 24.508 124.977H100.488C113.953 124.977 124.969 113.961 124.969 100.496V24.5159C124.969 11.0512 113.953 0.03125 100.488 0.03125H24.508ZM30.6663 20.6497C37.1223 20.6497 41.0989 24.888 41.2216 30.4591C41.2216 35.9073 37.122 40.2646 30.5414 40.2646H30.4203C24.0871 40.2646 19.9938 35.9075 19.9938 30.4591C19.9938 24.8881 24.211 20.6497 30.6661 20.6497H30.6663ZM86.3012 46.6885C98.7174 46.6885 108.025 54.8037 108.025 72.243V104.799H89.1559V74.4258C89.1559 66.7933 86.425 61.586 79.5964 61.586C74.3834 61.586 71.2761 65.0958 69.9119 68.4863C69.4135 69.6993 69.291 71.3934 69.291 73.0902V104.799H50.4219C50.4219 104.799 50.6695 53.3475 50.4219 48.02H69.2949V56.0605C71.8024 52.1918 76.2876 46.6884 86.3012 46.6884V46.6885ZM21.1068 48.0241H39.9759V104.799H21.1068V48.0241V48.0241Z" fill="black"/>
</svg>
