<svg width="128" height="45" viewBox="0 0 128 45" fill="none" xmlns="http://www.w3.org/2000/svg">
<path d="M54.7788 37.6588C54.7788 37.6588 60.4213 37.1751 60.4213 29.8886C60.4213 22.6018 53.586 21.9248 53.586 21.9248H41.2695V44.9131H47.46V39.3678L52.812 44.9133H61.9688L54.7788 37.6591V37.6588ZM52.393 32.9513H47.46V27.6961H52.425C52.425 27.6961 53.8115 28.2118 53.8115 30.3076C53.8115 32.4033 52.393 32.9516 52.393 32.9516V32.9513ZM75.7038 22.0861H69.4165C64.935 22.0861 63.4198 26.1486 63.4198 28.0828V44.9131H69.7068V40.8831H75.607V44.9131H81.7008V28.0831C81.7008 23.1821 77.2515 22.0861 75.7038 22.0861V22.0861ZM75.607 34.3701H69.6745V28.7923C69.6745 28.7923 69.6745 27.5348 71.6413 27.5348H73.8015C75.5425 27.5348 75.5748 28.7923 75.5748 28.7923V34.3701H75.6073H75.607ZM84.5703 22.0861H91.1153V44.9131H84.5703V22.0861V22.0861ZM100.304 39.0128V22.0861H93.7915V44.9128H109.106V39.0128H100.304V39.0128ZM111.267 39.0773V44.9131H121.81C123.97 44.9131 127.678 43.3333 127.807 38.9161V36.6593C127.807 32.8868 124.712 30.6623 121.81 30.6623H116.554V27.9541H126.968V22.0861H116.973C114.394 22.0861 110.944 24.2138 110.944 28.1796V30.2108C110.944 34.1766 114.362 36.2078 116.973 36.2078C124.228 36.2403 115.232 36.2078 121.939 36.2078V39.0453L111.267 39.0773V39.0773Z" fill="#CC0000"/>
<path d="M2.257 44.8805H27.728C27.728 44.8805 22.8595 22.666 38.9805 13.6705C42.4947 11.9617 53.6825 5.578 71.996 19.1195C72.5763 18.6357 73.1245 18.2488 73.1245 18.2488C73.1245 18.2488 56.3587 1.51525 37.6908 3.3855C28.3083 4.22375 16.7657 12.7677 9.995 24.0525C3.22425 35.337 2.257 44.8805 2.257 44.8805V44.8805ZM55.327 5.191L55.456 3.03075C55.1658 2.8695 54.3597 2.4825 52.3285 1.90225L52.1995 4.03025C53.2542 4.38347 54.2972 4.77059 55.327 5.191V5.191ZM52.264 12.026L52.135 14.0575C53.199 14.0897 54.263 14.2188 55.327 14.4443L55.456 12.4452C54.3598 12.2197 53.2957 12.0907 52.264 12.0262V12.026ZM40.3345 1.967H40.657L40.012 0C39.0125 0 37.9807 0.0645 36.917 0.1935L37.5295 2.09575C38.4645 1.999 39.3995 1.96675 40.3345 1.96675V1.967ZM41.882 13.832L42.6237 16.0567C43.5587 15.6052 44.4937 15.2185 45.4287 14.9283L44.7195 12.8003C43.7524 13.0827 42.8046 13.4273 41.882 13.832V13.832ZM27.2445 5.3525L25.7935 3.1275C24.9875 3.54675 24.149 3.99825 23.2785 4.514L24.7617 6.771C25.6 6.25525 26.406 5.7715 27.2442 5.3525H27.2445ZM33.854 19.8612L35.4015 22.1825C35.9495 21.3765 36.5945 20.635 37.304 19.8935L35.853 17.701C35.1283 18.3647 34.4597 19.0872 33.854 19.861V19.8612ZM29.179 30.243L31.7905 32.3065C31.9195 31.049 32.145 29.7915 32.4675 28.5343L30.146 26.6965C29.727 27.8895 29.4367 29.0822 29.1787 30.243H29.179ZM15.057 14.928L12.7677 12.9292C11.9295 13.7352 11.1235 14.5412 10.3818 15.3472L12.8643 17.4753C13.5418 16.6048 14.283 15.7343 15.0568 14.9283L15.057 14.928ZM5.32 29.3405L1.612 27.9862C0.9995 29.3722 0.3225 30.9845 0 31.855L3.70775 33.209C4.127 32.1127 4.804 30.533 5.32 29.34V29.3405ZM28.695 38.4325C28.7597 40.1412 28.921 41.5275 29.082 42.495L32.9512 43.8812C32.661 42.6237 32.3707 41.2052 32.1772 39.69L28.6952 38.4325H28.695Z" fill="#CC0000"/>
</svg>
