<svg width="64" height="57" viewBox="0 0 64 57" fill="none" xmlns="http://www.w3.org/2000/svg">
<path d="M52.6208 18.456C51.9396 18.2223 51.2528 18.0058 50.5607 17.8067C50.677 17.3317 50.784 16.8625 50.879 16.4015C52.4385 8.83121 51.419 2.73246 47.9367 0.724456C44.598 -1.20054 39.1377 0.806706 33.6232 5.60596C33.0798 6.07979 32.5484 6.56728 32.0295 7.06796C31.6822 6.73502 31.3287 6.40855 30.9692 6.08871C25.1897 0.957207 19.3967 -1.20554 15.9183 0.808206C12.5825 2.73921 11.5947 8.47246 12.9987 15.647C13.1384 16.3575 13.2962 17.0644 13.4718 17.767C12.6518 18 11.8605 18.248 11.1032 18.512C4.32725 20.8745 0 24.5767 0 28.417C0 32.3832 4.6455 36.3615 11.703 38.7737C12.2752 38.9685 12.8521 39.1489 13.4333 39.315C13.2445 40.0716 13.0769 40.8334 12.9307 41.5995C11.5922 48.6495 12.6375 54.2472 15.9642 56.166C19.4002 58.1475 25.1672 56.111 30.7825 51.2022C31.2378 50.8031 31.6831 50.3928 32.118 49.9715C32.6799 50.5136 33.2568 51.04 33.848 51.55C39.2875 56.2305 44.6595 58.1205 47.983 56.1965C51.4158 54.2092 52.5315 48.1957 51.083 40.8795C50.9689 40.3063 50.8409 39.7359 50.6992 39.169C51.1042 39.049 51.5018 38.9255 51.8893 38.797C59.2263 36.3662 64 32.4362 64 28.417C64 24.5627 59.533 20.8355 52.6208 18.456V18.456ZM51.0295 36.202C50.6795 36.3177 50.3205 36.4295 49.9545 36.5382C49.1445 33.974 48.0515 31.2475 46.7137 28.4302C47.9902 25.6802 49.0412 22.9885 49.8285 20.441C50.4832 20.6305 51.1185 20.8302 51.731 21.041C57.6535 23.08 61.266 26.0942 61.266 28.417C61.266 30.891 57.3645 34.1027 51.0295 36.202V36.202ZM48.401 41.4105C49.0415 44.6455 49.1327 47.5705 48.7085 49.8572C48.3275 51.912 47.561 53.2817 46.613 53.8305C44.5962 54.998 40.283 53.4805 35.6312 49.4775C35.0813 49.0033 34.5447 48.5139 34.022 48.01C35.8255 46.0377 37.6277 43.745 39.3867 41.1985C42.4807 40.924 45.4038 40.475 48.0545 39.8622C48.185 40.389 48.301 40.9055 48.401 41.4105V41.4105ZM21.819 53.6287C19.8485 54.3245 18.279 54.3445 17.3302 53.7975C15.3115 52.6332 14.4722 48.1385 15.617 42.1095C15.7531 41.397 15.9089 40.6885 16.0842 39.9847C18.7057 40.5647 21.6075 40.9817 24.7087 41.2332C26.4797 43.725 28.334 46.0152 30.2027 48.0207C29.8056 48.405 29.3991 48.7794 28.9835 49.1437C26.5002 51.3142 24.012 52.8542 21.819 53.6287V53.6287ZM12.5875 36.1867C9.46675 35.12 6.8895 33.7337 5.123 32.221C3.5355 30.8617 2.73425 29.512 2.73425 28.417C2.73425 26.0865 6.2085 23.114 12.0033 21.0937C12.7065 20.8487 13.4425 20.6175 14.2063 20.4005C15.0073 23.0055 16.0578 25.7292 17.3255 28.4835C16.0413 31.2785 14.9757 34.0457 14.167 36.6815C13.6365 36.5295 13.1099 36.3645 12.5875 36.1867V36.1867ZM15.682 15.1217C14.4793 8.97496 15.278 4.33821 17.2882 3.17446C19.4293 1.93496 24.1637 3.70221 29.154 8.13321C29.4794 8.4228 29.7995 8.71827 30.1143 9.01946C28.2548 11.0162 26.4175 13.2895 24.6623 15.7665C21.6523 16.0455 18.771 16.4935 16.122 17.0937C15.9588 16.4403 15.8121 15.7828 15.682 15.122V15.1217ZM43.2887 21.9387C42.6631 20.8579 42.0142 19.7908 41.3425 18.738C43.3845 18.9962 45.341 19.339 47.1782 19.758C46.6267 21.526 45.9393 23.3742 45.13 25.2692C44.5385 24.1469 43.9246 23.0365 43.2887 21.9387V21.9387ZM32.0308 10.9735C33.2918 12.3397 34.5548 13.865 35.797 15.52C33.277 15.4009 30.7528 15.4004 28.2327 15.5185C29.4762 13.8787 30.75 12.3555 32.0308 10.9735ZM20.7005 21.9575C20.0726 23.0464 19.4702 24.1499 18.8937 25.267C18.0977 23.3787 17.4165 21.522 16.8603 19.729C18.6863 19.3205 20.6335 18.9865 22.6625 18.733C21.9834 19.7922 21.3292 20.8672 20.7005 21.9572V21.9575ZM22.7208 38.2955C20.6245 38.0615 18.648 37.7447 16.8225 37.3472C17.3875 35.5222 18.0837 33.626 18.897 31.6972C19.4757 32.8151 20.0806 33.9192 20.7113 35.0087C21.3598 36.1287 22.0313 37.2257 22.7208 38.2955ZM32.1063 46.053C30.8103 44.655 29.5178 43.1082 28.2555 41.4447C29.481 41.4927 30.7303 41.5172 32 41.5172C33.3045 41.5172 34.594 41.488 35.8633 41.4315C34.617 43.125 33.3588 44.674 32.1063 46.053ZM45.1558 31.5987C46.0113 33.5487 46.7322 35.435 47.3047 37.2287C45.4492 37.6522 43.4458 37.9932 41.3348 38.2465C42.0112 37.1741 42.6662 36.0884 43.2995 34.99C43.9433 33.8735 44.5622 32.7428 45.1558 31.5987V31.5987ZM40.9313 33.624C39.9618 35.3081 38.9378 36.9602 37.861 38.5777C35.9104 38.7159 33.9555 38.7845 32 38.7835C30.0082 38.7835 28.071 38.7215 26.2055 38.6005C25.1006 36.9867 24.0571 35.3316 23.0772 33.639H23.0775C22.1023 31.9552 21.1914 30.2351 20.3468 28.4822C21.1892 26.7289 22.0974 25.008 23.0693 23.323L23.069 23.3232C24.0405 21.6378 25.0757 19.9898 26.1723 18.383C28.0755 18.239 30.0273 18.164 31.9998 18.164H32C33.9815 18.164 35.9358 18.2397 37.8385 18.3847C38.924 19.9892 39.9526 21.6314 40.9222 23.3085C41.8974 24.9898 42.8175 26.7023 43.6813 28.4435C42.8264 30.2024 41.9091 31.9303 40.9313 33.624V33.624ZM46.5713 3.09296C48.7143 4.32896 49.5477 9.31321 48.2012 15.8495C48.1152 16.2665 48.0187 16.6912 47.9137 17.122C45.2582 16.509 42.375 16.0532 39.3563 15.77C37.5978 13.2657 35.7755 10.989 33.9463 9.01796C34.4257 8.55583 34.9165 8.1057 35.4183 7.66796C40.1433 3.55621 44.5593 1.93271 46.5713 3.09296V3.09296ZM32 22.702C35.1562 22.702 37.715 25.2607 37.715 28.417C37.715 31.5732 35.1562 34.132 32 34.132C28.8438 34.132 26.285 31.5732 26.285 28.417C26.285 25.2607 28.8438 22.702 32 22.702V22.702Z" fill="#00D8FF"/>
</svg>
