<svg width="25" height="25" viewBox="0 0 25 25" fill="none" xmlns="http://www.w3.org/2000/svg">
<path d="M18.5 3.75H1.5C1.10218 3.75 0.720644 3.90804 0.43934 4.18934C0.158035 4.47064 0 4.85218 0 5.25L0 23.5C0 23.8978 0.158035 24.2794 0.43934 24.5607C0.720644 24.842 1.10218 25 1.5 25H18.5C18.8978 25 19.2794 24.842 19.5607 24.5607C19.842 24.2794 20 23.8978 20 23.5V5.25C20 4.85218 19.842 4.47064 19.5607 4.18934C19.2794 3.90804 18.8978 3.75 18.5 3.75Z" fill="#35495E"/>
<path opacity="0.2" d="M19 3.75H13.5C12.8096 3.75 12.25 4.30964 12.25 5V21.5C12.25 22.1904 12.8096 22.75 13.5 22.75H19C19.6904 22.75 20.25 22.1904 20.25 21.5V5C20.25 4.30964 19.6904 3.75 19 3.75Z" fill="black"/>
<path d="M19 23.25C19 23.4489 18.921 23.6397 18.7803 23.7803C18.6397 23.921 18.4489 24 18.25 24H1.75C1.55109 24 1.36032 23.921 1.21967 23.7803C1.07902 23.6397 1 23.4489 1 23.25V8H19V23.25Z" fill="white"/>
<path d="M2.25 6.75C2.66421 6.75 3 6.41421 3 6C3 5.58579 2.66421 5.25 2.25 5.25C1.83579 5.25 1.5 5.58579 1.5 6C1.5 6.41421 1.83579 6.75 2.25 6.75Z" fill="#D15527"/>
<path d="M4.25 6.75C4.66421 6.75 5 6.41421 5 6C5 5.58579 4.66421 5.25 4.25 5.25C3.83579 5.25 3.5 5.58579 3.5 6C3.5 6.41421 3.83579 6.75 4.25 6.75Z" fill="#F19B2D"/>
<path d="M6.25 6.75C6.66421 6.75 7 6.41421 7 6C7 5.58579 6.66421 5.25 6.25 5.25C5.83579 5.25 5.5 5.58579 5.5 6C5.5 6.41421 5.83579 6.75 6.25 6.75Z" fill="#53BB72"/>
<path fill-rule="evenodd" clip-rule="evenodd" d="M2 9H18V23H2V9Z" fill="#14A085"/>
<path fill-rule="evenodd" clip-rule="evenodd" d="M8.5 9H18V23H8.5V9Z" fill="#26B99A"/>
<path fill-rule="evenodd" clip-rule="evenodd" d="M23.5 0H14.5C14.1022 0 13.7206 0.158035 13.4393 0.43934C13.158 0.720644 13 1.10218 13 1.5V20.5002C13.0001 20.898 13.1582 21.2794 13.4395 21.5606C13.7208 21.8418 14.1023 21.9998 14.5 21.9998H23.5C23.8977 21.9998 24.2792 21.8418 24.5605 21.5606C24.8418 21.2794 24.9999 20.898 25 20.5002V1.5C25 1.10218 24.842 0.720644 24.5607 0.43934C24.2794 0.158035 23.8978 0 23.5 0V0ZM24 18.5H14V3.5H24V18.5Z" fill="#35495E"/>
<path fill-rule="evenodd" clip-rule="evenodd" d="M14 3.5H24V18.5H14V3.5Z" fill="white"/>
<path fill-rule="evenodd" clip-rule="evenodd" d="M14.75 4.25H23.25V17.75H14.75V4.25Z" fill="#14A085"/>
<path fill-rule="evenodd" clip-rule="evenodd" d="M14.75 11H23.25V17.75H14.75V11Z" fill="#26B99A"/>
<path fill-rule="evenodd" clip-rule="evenodd" d="M17.375 1.5H20.375C20.4745 1.5 20.5698 1.53951 20.6402 1.60983C20.7105 1.68016 20.75 1.77554 20.75 1.875C20.75 1.97446 20.7105 2.06984 20.6402 2.14017C20.5698 2.21049 20.4745 2.25 20.375 2.25H17.375C17.2755 2.25 17.1802 2.21049 17.1098 2.14017C17.0395 2.06984 17 1.97446 17 1.875C17 1.77554 17.0395 1.68016 17.1098 1.60983C17.1802 1.53951 17.2755 1.5 17.375 1.5ZM19 19.5002C19.1988 19.5002 19.3895 19.5792 19.5302 19.7198C19.6708 19.8605 19.7498 20.0512 19.7498 20.25C19.7498 20.4488 19.6708 20.6395 19.5302 20.7802C19.3895 20.9208 19.1988 20.9998 19 20.9998C18.8999 21.0023 18.8003 20.9849 18.7071 20.9483C18.6139 20.9118 18.5289 20.857 18.4572 20.7871C18.3855 20.7173 18.3285 20.6337 18.2896 20.5415C18.2507 20.4492 18.2306 20.3501 18.2306 20.25C18.2306 20.1499 18.2507 20.0508 18.2896 19.9585C18.3285 19.8663 18.3855 19.7827 18.4572 19.7129C18.5289 19.643 18.6139 19.5882 18.7071 19.5517C18.8003 19.5151 18.8999 19.4977 19 19.5002V19.5002Z" fill="#2C3D4F"/>
</svg>
